<svg xmlns="http://www.w3.org/2000/svg" version="1.1" viewBox="-5.0 -10.0 110.0 135.0">
 <path d="m51.281 73.781 17.191 9.0391c2.0117 1.0586 4.3711-0.64844 3.9883-2.8984l-3.2812-19.141c-0.14844-0.89062 0.14062-1.8008 0.78906-2.4297l13.91-13.559c1.6289-1.5898 0.73047-4.3594-1.5195-4.6797l-19.219-2.7891c-0.89062-0.12891-1.6719-0.69141-2.0703-1.5l-8.6016-17.422c-1.0117-2.0391-3.9219-2.0391-4.9297 0l-8.6016 17.422c-0.39844 0.80859-1.1719 1.3711-2.0703 1.5l-19.219 2.7891c-2.25 0.32812-3.1484 3.1016-1.5195 4.6797l13.91 13.559c0.64844 0.62891 0.94141 1.5391 0.78906 2.4297l-3.2812 19.141c-0.37891 2.2383 1.9688 3.9492 3.9883 2.8984l17.191-9.0391c0.80078-0.42188 1.7617-0.42188 2.5586 0z"/>
</svg>